<svg xmlns="http://www.w3.org/2000/svg" viewBox="0 0 64 64" width="64" height="64">
  <rect width="64" height="64" rx="8" fill="#2d2d2d"/>
  <path d="M18 14c0-2 1-3 3-3h6c2 0 3 1 3 3v8c0 2-1 3-3 3h-6c-2 0-3-1-3-3zm14 10c0-2 1-3 3-3h6c2 0 3 1 3 3v8c0 2-1 3-3 3h-6c-2 0-3-1-3-3zm-14 10c0-2 1-3 3-3h6c2 0 3 1 3 3v8c0 2-1 3-3 3h-6c-2 0-3-1-3-3z" fill="#e06060"/>
  <line x1="27" y1="22" x2="32" y2="22" stroke="#e06060" stroke-width="2"/>
  <line x1="32" y1="32" x2="27" y2="32" stroke="#e06060" stroke-width="2"/>
</svg>
