<svg xmlns="http://www.w3.org/2000/svg" width="1200" height="630" viewBox="0 0 1200 630">
  <defs>
    <linearGradient id="accent" x1="0%" y1="0%" x2="100%" y2="100%">
      <stop offset="0%" stop-color="#7c3aed"/>
      <stop offset="100%" stop-color="#3b82f6"/>
    </linearGradient>
    <linearGradient id="accent2" x1="0%" y1="100%" x2="100%" y2="0%">
      <stop offset="0%" stop-color="#7c3aed" stop-opacity="0.12"/>
      <stop offset="100%" stop-color="#3b82f6" stop-opacity="0.06"/>
    </linearGradient>
    <radialGradient id="glow1" cx="50%" cy="40%" r="45%">
      <stop offset="0%" stop-color="#7c3aed" stop-opacity="0.18"/>
      <stop offset="60%" stop-color="#3b82f6" stop-opacity="0.06"/>
      <stop offset="100%" stop-color="#0a0a0f" stop-opacity="0"/>
    </radialGradient>
    <radialGradient id="glow2" cx="80%" cy="20%" r="30%">
      <stop offset="0%" stop-color="#f472b6" stop-opacity="0.08"/>
      <stop offset="100%" stop-color="#0a0a0f" stop-opacity="0"/>
    </radialGradient>
    <clipPath id="brutal">
      <polygon points="0,0 1190,0 1200,10 1200,630 10,630 0,620"/>
    </clipPath>
  </defs>

  <rect width="1200" height="630" fill="#0a0a0f"/>

  <rect width="1200" height="630" fill="url(#glow1)"/>
  <rect width="1200" height="630" fill="url(#glow2)"/>

  <g clip-path="url(#brutal)">
    <rect x="0" y="0" width="1200" height="630" fill="none" stroke="url(#accent)" stroke-width="4" rx="0"/>
  </g>

  <g opacity="0.04">
    <circle cx="150" cy="480" r="180" fill="none" stroke="#7c3aed" stroke-width="1"/>
    <circle cx="150" cy="480" r="140" fill="none" stroke="#7c3aed" stroke-width="0.5"/>
    <circle cx="1050" cy="150" r="200" fill="none" stroke="#3b82f6" stroke-width="1"/>
    <circle cx="1050" cy="150" r="160" fill="none" stroke="#3b82f6" stroke-width="0.5"/>
    <path d="M 200,600 Q 400,550 600,570 Q 800,590 1000,540" fill="none" stroke="#7c3aed" stroke-width="0.8"/>
    <path d="M 0,80 Q 300,40 600,60 Q 900,80 1200,30" fill="none" stroke="#3b82f6" stroke-width="0.8"/>
  </g>

  <g opacity="0.07">
    <path d="M 80,500 C 120,470 160,510 200,490 S 280,470 320,500 S 400,520 440,490" fill="none" stroke="url(#accent)" stroke-width="1.5" stroke-linecap="round"/>
    <path d="M 760,130 C 800,100 840,140 880,120 S 960,100 1000,130 S 1080,150 1120,120" fill="none" stroke="url(#accent)" stroke-width="1.5" stroke-linecap="round"/>
  </g>

  <rect x="60" y="60" width="40" height="4" rx="2" fill="url(#accent)" opacity="0.3"/>
  <rect x="110" y="60" width="20" height="4" rx="2" fill="#7c3aed" opacity="0.2"/>
  <rect x="1100" y="566" width="40" height="4" rx="2" fill="url(#accent)" opacity="0.3"/>
  <rect x="1050" y="566" width="20" height="4" rx="2" fill="#3b82f6" opacity="0.2"/>

  <rect x="80" y="540" width="80" height="32" rx="4" fill="#12121a" stroke="#2a2a3e" stroke-width="1"/>
  <text x="120" y="561" text-anchor="middle" font-family="monospace" font-size="11" fill="#8888a8">suture init</text>

  <rect x="180" y="540" width="130" height="32" rx="4" fill="#12121a" stroke="#7c3aed" stroke-width="1" opacity="0.6"/>
  <text x="245" y="561" text-anchor="middle" font-family="monospace" font-size="11" fill="#7c3aed">suture merge .</text>

  <rect x="330" y="540" width="140" height="32" rx="4" fill="#12121a" stroke="#3b82f6" stroke-width="1" opacity="0.6"/>
  <text x="400" y="561" text-anchor="middle" font-family="monospace" font-size="11" fill="#3b82f6">suture push main</text>

  <text x="600" y="265" text-anchor="middle" font-family="monospace" font-size="96" font-weight="800" fill="url(#accent)" letter-spacing="12">SUTURE</text>

  <text x="600" y="320" text-anchor="middle" font-family="-apple-system,BlinkMacSystemFont,Segoe UI,Helvetica,Arial,sans-serif" font-size="28" fill="#8888a8" letter-spacing="1">Semantic Merge for Every Format</text>

  <rect x="480" y="365" width="240" height="44" rx="6" fill="url(#accent)" opacity="0.15"/>
  <rect x="480" y="365" width="240" height="44" rx="6" fill="none" stroke="url(#accent)" stroke-width="1" opacity="0.4"/>
  <text x="600" y="393" text-anchor="middle" font-family="monospace" font-size="15" font-weight="600" fill="#e2e2f0">suture.dev</text>

  <g font-family="monospace" font-size="11" opacity="0.35">
    <rect x="870" y="490" width="260" height="80" rx="6" fill="#12121a" stroke="#2a2a3e" stroke-width="1"/>
    <text x="890" y="512" fill="#8888a8">// supported formats</text>
    <text x="890" y="532" fill="#7c3aed">JSON YAML TOML CSV XML</text>
    <text x="890" y="552" fill="#3b82f6">DOCX XLSX PPTX SVG SQL</text>
  </g>

  <text x="1140" y="610" text-anchor="end" font-family="monospace" font-size="10" fill="#2a2a3e">v0.1.0-alpha</text>
</svg>
